<svg id="ednZEblxeGA1" xmlns="http://www.w3.org/2000/svg" xmlns:xlink="http://www.w3.org/1999/xlink" viewBox="0 0 826.6 848.7" shape-rendering="geometricPrecision" text-rendering="geometricPrecision"><path id="ednZEblxeGA2" d="M676.9,234C676.9,234,661.4,242.9,666.2,255.5C666.2,255.5,682.3,260.3,688.8,272.2C695.3,284.1,746,327,746,327L782.9,308.5C782.9,308.5,770,291.3,729.4,279.4C729.4,279.4,705.4,253.7,697.1,248.9C688.8,244.1,676.9,234,676.9,234Z" fill="rgb(203,205,218)" stroke="none" stroke-width="1"/><path id="ednZEblxeGA3" d="M676.9,234C676.9,234,661.4,242.9,666.2,255.5C666.2,255.5,682.3,260.3,688.8,272.2C695.3,284.1,746,327,746,327L782.9,308.5C782.9,308.5,770,291.3,729.4,279.4C729.4,279.4,705.4,253.7,697.1,248.9C688.8,244.1,676.9,234,676.9,234Z" opacity="0.05" fill="rgb(0,0,0)" stroke="none" stroke-width="1"/><path id="ednZEblxeGA4" d="M141.3,804.4C133.3,806.4,125,804.1,116.8,804C108.6,803.9,99,807.3,97,815.3C94.3,826,106.8,834,117.5,836.7C159,847,202.8,833.6,245.2,839.1C263.1,841.4,280.4,847,298.4,848.4C339.5,851.5,379.6,831.9,420.8,834.1C441.4,835.2,461.4,841.7,482.1,842.8C531.4,845.3,580.1,816.4,628.4,826.7C642,829.6,654.8,835.6,668.3,839.1C702.5,847.8,738.4,840.1,772.8,832.3C779.6,830.8,787.9,827.7,788.7,820.8C789.6,813.1,780.8,808.3,773.5,805.9C693.4,779.1,607.6,764.9,524,777.3C505,780.1,486,784.3,466.8,784C424.3,783.4,385.2,761.2,343.4,753.1C264.3,737.7,185.1,773.6,112.5,808.6" opacity="0.1" fill="rgb(108,99,255)" stroke="none" stroke-width="1"/><path id="ednZEblxeGA5" d="M250.9,577.1L226.7,577.1L226.7,781.9C226.7,781.9,383.1,832.6,535.1,781.9L535.1,577.1L250.9,577.1Z" fill="rgb(34,137,85)" stroke="none" stroke-width="1"/><ellipse id="ednZEblxeGA6" rx="152" ry="23.1" transform="matrix(1 0 0 1 378.7 578.2)" fill="rgb(63,61,86)" stroke="none" stroke-width="1"/><ellipse id="ednZEblxeGA7" rx="152" ry="23.1" transform="matrix(1 0 0 1 378.7 578.2)" fill="rgb(49,162,109)" stroke="none" stroke-width="1"/><path id="ednZEblxeGA8" d="M555.4,332.3C517,474.1,385.7,561.8,385.7,561.8C385.7,561.8,316.5,419.8,354.9,278.1C393.2,136.4,524.5,48.6,524.5,48.6C524.5,48.6,593.7,190.6,555.4,332.3Z" fill="rgb(49,162,109)" stroke="none" stroke-width="1"/><path id="ednZEblxeGA9" d="M206.6,332.3C244.9,474,376.3,561.8,376.3,561.8C376.3,561.8,445.5,419.8,407.1,278.1C368.7,136.4,237.4,48.6,237.4,48.6C237.4,48.6,168.2,190.6,206.6,332.3Z" fill="rgb(3,61,107)" stroke="none" stroke-width="1"/><path id="ednZEblxeGA10" d="M262.9,301.9C368.1,404.3,381,561.7,381,561.7C381,561.7,223.3,553.1,118.1,450.7C12.9,348.3,0,190.9,0,190.9C0,190.9,157.7,199.5,262.9,301.9Z" fill="rgb(49,162,109)" stroke="none" stroke-width="1"/><path id="ednZEblxeGA11" d="M499,301.9C393.8,404.3,381,561.7,381,561.7C381,561.7,538.7,553.1,643.9,450.7C749.1,348.3,762,190.9,762,190.9C762,190.9,604.2,199.5,499,301.9Z" fill="rgb(49,162,109)" stroke="none" stroke-width="1"/><circle id="ednZEblxeGA12" r="58.496078" transform="matrix(1 0 0 1 390.896094 58.496096)" fill="rgb(3,61,107)" stroke="none" stroke-width="1"/><path id="ednZEblxeGA13" d="M90.7,391.6C94.1,404.1,106.1,411.7,106.1,411.7C106.1,411.7,112.5,399.1,109,386.6C105.5,374.1,93.6,366.5,93.6,366.5C93.6,366.5,87.3,379.1,90.7,391.6Z" transform="matrix(1 0 0 1 9.214615 8.5)" fill="rgb(3,61,107)" stroke="none" stroke-width="1"/><path id="ednZEblxeGA14" d="M155,461C151.3,473.4,157.4,486.2,157.4,486.2C157.4,486.2,169.5,478.9,173.2,466.5C176.9,454.1,170.8,441.3,170.8,441.3C170.8,441.3,158.7,448.7,155,461Z" fill="rgb(3,61,107)" stroke="none" stroke-width="1"/><path id="ednZEblxeGA15" d="M618.9,544.313513C609.8,556.745946,609.2,575.8,609.2,575.8C609.2,575.8,623.3,574.718919,632.4,562.286486C641.5,549.854054,642.1,530.8,642.1,530.8C642.1,530.8,628,531.745946,618.9,544.313513Z" fill="rgb(3,61,107)" stroke="none" stroke-width="1"/><path id="ednZEblxeGA16" d="M773.4,742.3C773.4,742.3,775.2,768.5,778.2,771.5C781.2,774.5,751.4,776.3,751.4,776.3L755.6,742.3L773.4,742.3Z" fill="rgb(168,113,113)" stroke="none" stroke-width="1"/><path id="ednZEblxeGA17" d="M773.4,742.3C773.4,742.3,775.2,768.5,778.2,771.5C781.2,774.5,751.4,776.3,751.4,776.3L755.6,742.3L773.4,742.3Z" opacity="0.05" fill="rgb(0,0,0)" stroke="none" stroke-width="1"/><path id="ednZEblxeGA18" d="M780,762.6C780,762.6,775.8,762.6,760.9,770.3C760.9,770.3,750.8,768.5,746.6,754.2C746.6,754.2,734.1,775.7,725.7,776.8C717.3,777.9,701.3,779.2,712,793.5C722.7,807.8,785.9,801.2,785.9,801.2C785.9,801.2,787.7,766.7,780,762.6Z" fill="rgb(203,205,218)" stroke="none" stroke-width="1"/><path id="ednZEblxeGA19" d="M780,762.6C780,762.6,775.8,762.6,760.9,770.3C760.9,770.3,750.8,768.5,746.6,754.2C746.6,754.2,734.1,775.7,725.7,776.8C717.3,777.9,701.3,779.2,712,793.5C722.7,807.8,785.9,801.2,785.9,801.2C785.9,801.2,787.7,766.7,780,762.6Z" opacity="0.05" fill="rgb(0,0,0)" stroke="none" stroke-width="1"/><path id="ednZEblxeGA20" d="M771.1,782.8L766.9,794.1L739.5,786.4L741.1,775.2L741.5,772.5L742.5,765C742.5,765,765.7,759,765.7,762C766,764.5,766.5,766.9,767.2,769.3C768.2,773,769.4,777.1,770.2,779.9C770.7,781.6,771.1,782.8,771.1,782.8Z" fill="rgb(168,113,113)" stroke="none" stroke-width="1"/><path id="ednZEblxeGA21" d="M756.1,627.4C754.2,630.6,752.1,636.5,756,644C757.2,646.2,758.6,648.2,760.3,649.9C773.4,664.2,777,696.4,777,696.4L777,748.2L768.1,748.9L753.8,750L732.3,661.8C732.3,661.8,719.8,597.4,725.7,586.1C731.6,574.8,737,503.9,737,503.9L741.9,498.8L753.6,486.6L787.6,486.6C790.3,488.5,792.6,491.1,794.2,494C799.9,503.4,805,523.1,789.4,559.3C765,615.9,757.8,624.8,757.8,624.8C757.2,625.7,756.6,626.5,756.1,627.4Z" fill="rgb(76,76,120)" stroke="none" stroke-width="1"/><path id="ednZEblxeGA22" d="M756.1,627.4C754.2,630.6,752.1,636.5,756,644C757.2,646.2,758.6,648.2,760.3,649.9C773.4,664.2,777,696.4,777,696.4L777,748.2L768.1,748.9L753.8,750L732.3,661.8C732.3,661.8,719.8,597.4,725.7,586.1C731.6,574.8,737,503.9,737,503.9L741.9,498.8L753.6,486.6L787.6,486.6C790.3,488.5,792.6,491.1,794.2,494C799.9,503.4,805,523.1,789.4,559.3C765,615.9,757.8,624.8,757.8,624.8C757.2,625.7,756.6,626.5,756.1,627.4Z" opacity="0.05" fill="rgb(0,0,0)" stroke="none" stroke-width="1"/><path id="ednZEblxeGA23" d="M767.2,769.2L741.4,772.4L742.4,764.9C742.4,764.9,765.6,758.9,765.6,761.9C766,764.4,766.5,766.8,767.2,769.2Z" opacity="0.1" fill="rgb(0,0,0)" stroke="none" stroke-width="1"/><path id="ednZEblxeGA24" d="M754.4,551C754.4,551,755.9,597.9,756.1,627.4C756.2,634.1,756.1,639.8,756,644C756,646.2,755.9,648.4,755.5,650.5C753.7,655.9,757.3,667.8,757.3,667.8C772.2,707.1,768,741.7,768,741.7L768,767.9L739.4,771.5C739.4,771.5,744.2,767.9,731.1,733.4C723.6,713.5,721.9,694.1,721.9,681.1C721.8,674,720.4,667,717.7,660.4C716.9,658.2,716.4,655.9,716.2,653.5C715,641.6,709.6,626.7,709.6,626.7C709.6,626.7,695.3,584.4,691.7,553.4C690,538.7,690.3,523.7,692.5,509.1C693,505.4,693.7,501.7,694.7,498C694.7,498,753,461.3,774.9,486.7C777,489.2,778.7,492,779.9,495C781.1,498,782.1,501.1,782.7,504.3C789.7,537.9,754.4,551,754.4,551Z" fill="rgb(76,76,120)" stroke="none" stroke-width="1"/><circle id="ednZEblxeGA25" r="30.4" transform="matrix(1 0 0 1 752.6 259.6)" fill="rgb(168,113,113)" stroke="none" stroke-width="1"/><path id="ednZEblxeGA26" d="M735.9,278.7C735.9,278.7,748.4,313.9,735.9,332.3C723.4,350.7,775.8,344.8,775.8,344.8L796.1,320.4C796.1,320.4,772.3,320.4,771.1,278.7C769.9,237,735.9,278.7,735.9,278.7Z" fill="rgb(168,113,113)" stroke="none" stroke-width="1"/><path id="ednZEblxeGA27" d="M796.1,501C791.8,502.5,787.3,503.6,782.8,504.3C775.4,505.4,766.6,505.5,761.5,501C758.5,498.3,751,498,742,498.9C723.1,500.7,697.5,507.8,692.6,509.2C693.1,505.5,693.8,501.8,694.8,498.1C694.8,498.1,753.1,461.4,775,486.8L787.7,486.8C790.4,488.7,792.7,491.3,794.3,494.2C795.4,498.8,796.1,501,796.1,501Z" opacity="0.1" fill="rgb(0,0,0)" stroke="none" stroke-width="1"/><path id="ednZEblxeGA28" d="M771.1,782.8L766.9,794.1L739.5,786.4L741.1,775.2C745.8,785.6,753.8,787,753.8,787C762.5,782.5,767.5,780.6,770.2,779.8C770.7,781.6,771.1,782.8,771.1,782.8Z" opacity="0.1" fill="rgb(0,0,0)" stroke="none" stroke-width="1"/><path id="ednZEblxeGA29" d="M772.8,779.8C772.8,779.8,768.6,779.8,753.7,787.5C753.7,787.5,743.6,785.7,739.4,771.4C739.4,771.4,726.9,792.9,718.5,794C710.1,795.1,694.1,796.4,704.8,810.7C715.5,825,778.7,818.4,778.7,818.4C778.7,818.4,780.6,784,772.8,779.8Z" fill="rgb(203,205,218)" stroke="none" stroke-width="1"/><path id="ednZEblxeGA30" d="M631.5,265.4C631.5,265.4,632.7,242.2,657.1,244.5C659.4,244.7,661.1,246.8,660.9,249C660.8,249.5,660.7,250.1,660.4,250.6L655.4,260L631.5,265.4Z" fill="rgb(168,113,113)" stroke="none" stroke-width="1"/><path id="ednZEblxeGA31" d="M772.3,327.6C772.3,327.6,743.1,322.8,735.4,316.9C735.4,316.9,729.4,328.2,718.7,322.3C708,316.4,682.9,316.9,682.9,316.9C682.9,316.9,662,305.6,657.9,280C657.9,280,653.7,264.5,654.9,260.3C654.9,260.3,639.4,244.2,631.7,265.7C634.7,280.6,637.1,279.4,636.5,291.3L646,317.5C646,317.5,646.6,326.4,663.9,338.4C681.2,350.4,700.8,368.8,700.8,368.8C700.8,368.8,690.4,374.5,694.2,400.4C698.9,432.1,691.8,477.3,691.8,477.3L691.8,506.5C691.8,506.5,751.4,489.2,761.5,498.2C771.6,507.2,796.1,498.2,796.1,498.2C796.1,498.2,793.1,488.1,788.9,463.6C784.7,439.1,789.5,415.3,789.5,415.3C789.5,415.3,805,374.2,812.1,357.5C819.2,340.8,806.7,318.2,794.2,309.8C781.7,301.4,777,306.5,777,306.5C777,306.5,799.1,322.2,772.3,327.6Z" fill="rgb(203,205,218)" stroke="none" stroke-width="1"/><path id="ednZEblxeGA32" d="M719.7,252.2C719.7,253.4,719.9,254.7,720.3,255.8C721,257.1,721.9,258.3,723.1,259.3C727.6,263.7,731.5,268.8,733,274.9C734.1,279,734,283.3,733.9,287.5C733.6,304.6,732.9,323.1,722.4,336.5C718.5,341.4,713.5,345.4,708.8,349.6C708.1,350.1,707.6,350.7,707.4,351.5C707.3,352.3,707.4,353.1,707.8,353.9C710,358.4,714.6,361.2,718.9,363.7C720.9,364.9,723,366,725.3,366.1C730.7,366.3,734.3,360.6,739.2,358.3C746.4,355,754.4,359.6,761.6,363C766.8,365.5,772.2,367.3,777.7,368.6C785.3,370.4,794,370.8,800.4,366.3C804.1,363.7,806.6,359.7,807.5,355.2C808,352.3,807.9,348.9,810.1,346.9C811.2,345.9,812.8,345.5,814,344.6C815.9,343.2,816.8,340.9,817.6,338.6L824.9,318.5C825.8,316.4,826.3,314.1,826.3,311.8C825.9,307,821.5,303.5,817,301.6C812.5,299.7,807.6,298.8,803.6,296C796.9,291.2,794.9,282.3,794.3,274.1C793.9,268.5,793.9,262.9,794.4,257.2C795.1,248.9,796.8,240,793.1,232.6C789.2,224.6,780.3,220.5,772.1,217.1C768.9,215.8,765.7,214.4,762.3,214.3C758.7,214.1,755.2,215.3,751.7,216.5C746.3,218.4,740.7,220.8,735.1,222.1C731.9,222.8,728.5,222.3,725.5,223.4C714.6,227.7,719.7,243.2,719.7,252.2Z" opacity="0.1" fill="rgb(0,0,0)" stroke="none" stroke-width="1"/><path id="ednZEblxeGA33" d="M719.7,251C719.7,252.2,719.9,253.5,720.3,254.6C721,255.9,721.9,257.1,723.1,258.1C727.6,262.5,731.5,267.6,733,273.7C734.1,277.8,734,282.1,733.9,286.3C733.6,303.4,732.9,321.9,722.4,335.3C718.5,340.2,713.5,344.2,708.8,348.4C708.1,348.9,707.6,349.5,707.4,350.3C707.3,351.1,707.4,351.9,707.8,352.7C710,357.2,714.6,360,718.9,362.5C720.9,363.7,723,364.8,725.3,364.9C730.7,365.1,734.3,359.4,739.2,357.1C746.4,353.8,754.4,358.4,761.6,361.8C766.8,364.3,772.2,366.1,777.7,367.4C785.3,369.2,794,369.6,800.4,365.1C804.1,362.5,806.6,358.5,807.5,354C808,351.1,807.9,347.7,810.1,345.7C811.2,344.7,812.8,344.3,814,343.4C815.9,342,816.8,339.7,817.6,337.4L824.9,317.3C825.8,315.2,826.3,312.9,826.3,310.6C825.9,305.8,821.5,302.3,817,300.4C812.5,298.5,807.6,297.6,803.6,294.8C796.9,290,794.9,281.1,794.3,272.9C793.9,267.3,793.9,261.7,794.4,256C795.1,247.7,796.8,238.8,793.1,231.4C789.2,223.4,780.3,219.3,772.1,215.9C768.9,214.6,765.7,213.2,762.3,213.1C758.7,212.9,755.2,214.1,751.7,215.3C746.3,217.2,740.7,219.6,735.1,220.9C731.9,221.6,728.5,221.1,725.5,222.2C714.6,226.5,719.7,242,719.7,251Z" fill="rgb(20,15,15)" stroke="none" stroke-width="1"/><path id="ednZEblxeGA34" d="M695.7,413.6C695.7,413.6,700.5,412.4,724.3,408.9C748.1,405.4,789.8,413.7,789.8,413.7" opacity="0.05" fill="rgb(0,0,0)" stroke="none" stroke-width="1"/><path id="ednZEblxeGA35" d="M40.7,511.6C44.1,524.1,56.1,531.7,56.1,531.7C56.1,531.7,62.5,519.1,59,506.6C55.6,494.1,43.6,486.5,43.6,486.5C43.6,486.5,37.3,499.1,40.7,511.6Z" fill="rgb(3,61,107)" stroke="none" stroke-width="1"/><script><![CDATA[!function(t,n){"object"==typeof exports&&"undefined"!=typeof module?module.exports=n(require("vue")):"function"==typeof define&&define.amd?define(["vue"],n):((t="undefined"!=typeof globalThis?globalThis:t||self).__SVGATOR_PLAYER__=t.__SVGATOR_PLAYER__||{},t.__SVGATOR_PLAYER__["5c7f360c"]=n())}(this,(function(){"use strict";function t(t,n){var r=Object.keys(t);if(Object.getOwnPropertySymbols){var e=Object.getOwnPropertySymbols(t);n&&(e=e.filter((function(n){return Object.getOwnPropertyDescriptor(t,n).enumerable}))),r.push.apply(r,e)}return r}function n(n){for(var r=1;r<arguments.length;r++){var e=null!=arguments[r]?arguments[r]:{};r%2?t(Object(e),!0).forEach((function(t){u(n,t,e[t])})):Object.getOwnPropertyDescriptors?Object.defineProperties(n,Object.getOwnPropertyDescriptors(e)):t(Object(e)).forEach((function(t){Object.defineProperty(n,t,Object.getOwnPropertyDescriptor(e,t))}))}return n}function r(t){return(r="function"==typeof Symbol&&"symbol"==typeof Symbol.iterator?function(t){return typeof t}:function(t){return t&&"function"==typeof Symbol&&t.constructor===Symbol&&t!==Symbol.prototype?"symbol":typeof t})(t)}function e(t,n){if(!(t instanceof n))throw new TypeError("Cannot call a class as a function")}function i(t,n){for(var r=0;r<n.length;r++){var e=n[r];e.enumerable=e.enumerable||!1,e.configurable=!0,"value"in e&&(e.writable=!0),Object.defineProperty(t,e.key,e)}}function o(t,n,r){return n&&i(t.prototype,n),r&&i(t,r),t}function u(t,n,r){return n in t?Object.defineProperty(t,n,{value:r,enumerable:!0,configurable:!0,writable:!0}):t[n]=r,t}function a(t){return(a=Object.setPrototypeOf?Object.getPrototypeOf:function(t){return t.__proto__||Object.getPrototypeOf(t)})(t)}function l(t,n){return(l=Object.setPrototypeOf||function(t,n){return t.__proto__=n,t})(t,n)}function f(t,n){if(n&&("object"==typeof n||"function"==typeof n))return n;if(void 0!==n)throw new TypeError("Derived constructors may only return object or undefined");return function(t){if(void 0===t)throw new ReferenceError("this hasn't been initialised - super() hasn't been called");return t}(t)}function s(t){var n=function(){if("undefined"==typeof Reflect||!Reflect.construct)return!1;if(Reflect.construct.sham)return!1;if("function"==typeof Proxy)return!0;try{return Boolean.prototype.valueOf.call(Reflect.construct(Boolean,[],(function(){}))),!0}catch(t){return!1}}();return function(){var r,e=a(t);if(n){var i=a(this).constructor;r=Reflect.construct(e,arguments,i)}else r=e.apply(this,arguments);return f(this,r)}}function c(t,n,r){return(c="undefined"!=typeof Reflect&&Reflect.get?Reflect.get:function(t,n,r){var e=function(t,n){for(;!Object.prototype.hasOwnProperty.call(t,n)&&null!==(t=a(t)););return t}(t,n);if(e){var i=Object.getOwnPropertyDescriptor(e,n);return i.get?i.get.call(r):i.value}})(t,n,r||t)}var h=v(Math.pow(10,-6));function v(t){var n=arguments.length>1&&void 0!==arguments[1]?arguments[1]:6;if(Number.isInteger(t))return t;var r=Math.pow(10,n);return Math.round((+t+Number.EPSILON)*r)/r}function y(t,n){var r=arguments.length>2&&void 0!==arguments[2]?arguments[2]:h;return Math.abs(t-n)<r}var g=Math.PI/180;function d(t){return t}function p(t,n,r){var e=1-r;return 3*r*e*(t*e+n*r)+r*r*r}function m(){var t=arguments.length>0&&void 0!==arguments[0]?arguments[0]:0,n=arguments.length>1&&void 0!==arguments[1]?arguments[1]:0,r=arguments.length>2&&void 0!==arguments[2]?arguments[2]:1,e=arguments.length>3&&void 0!==arguments[3]?arguments[3]:1;return t<0||t>1||r<0||r>1?null:y(t,n)&&y(r,e)?d:function(i){if(i<=0)return t>0?i*n/t:0===n&&r>0?i*e/r:0;if(i>=1)return r<1?1+(i-1)*(e-1)/(r-1):1===r&&t<1?1+(i-1)*(n-1)/(t-1):1;for(var o,u=0,a=1;u<a;){var l=p(t,r,o=(u+a)/2);if(y(i,l))break;l<i?u=o:a=o}return p(n,e,o)}}function b(){return 1}function w(t){return 1===t?1:0}function x(){var t=arguments.length>0&&void 0!==arguments[0]?arguments[0]:1,n=arguments.length>1&&void 0!==arguments[1]?arguments[1]:0;if(1===t){if(0===n)return w;if(1===n)return b}var r=1/t;return function(t){return t>=1?1:(t+=n*r)-t%r}}var A="undefined"!=typeof window&&/(Mac|iPhone|iPod|iPad)/i.test(window.navigator.platform);Object.freeze({Meta:A?"Control":"Meta",Ctrl:"Control",Down:"ArrowDown",Up:"ArrowUp",Left:"ArrowLeft",Right:"ArrowRight",Esc:"Escape",Delete:"Backspace",Space:"Space"});var k=Math.sin,_=Math.cos,S=Math.acos,O=Math.asin,j=Math.tan,P=Math.atan2,M=Math.PI/180,E=180/Math.PI,R=Math.sqrt,I=function(){function t(){var n=arguments.length>0&&void 0!==arguments[0]?arguments[0]:1,r=arguments.length>1&&void 0!==arguments[1]?arguments[1]:0,i=arguments.length>2&&void 0!==arguments[2]?arguments[2]:0,o=arguments.length>3&&void 0!==arguments[3]?arguments[3]:1,u=arguments.length>4&&void 0!==arguments[4]?arguments[4]:0,a=arguments.length>5&&void 0!==arguments[5]?arguments[5]:0;e(this,t),this.m=[n,r,i,o,u,a],this.i=null,this.w=null,this.s=null}return o(t,[{key:"determinant",get:function(){var t=this.m;return t[0]*t[3]-t[1]*t[2]}},{key:"isIdentity",get:function(){if(null===this.i){var t=this.m;this.i=1===t[0]&&0===t[1]&&0===t[2]&&1===t[3]&&0===t[4]&&0===t[5]}return this.i}},{key:"point",value:function(t,n){var r=this.m;return{x:r[0]*t+r[2]*n+r[4],y:r[1]*t+r[3]*n+r[5]}}},{key:"translateSelf",value:function(){var t=arguments.length>0&&void 0!==arguments[0]?arguments[0]:0,n=arguments.length>1&&void 0!==arguments[1]?arguments[1]:0;if(!t&&!n)return this;var r=this.m;return r[4]+=r[0]*t+r[2]*n,r[5]+=r[1]*t+r[3]*n,this.w=this.s=this.i=null,this}},{key:"rotateSelf",value:function(){var t=arguments.length>0&&void 0!==arguments[0]?arguments[0]:0;if(t%=360){var n=k(t*=M),r=_(t),e=this.m,i=e[0],o=e[1];e[0]=i*r+e[2]*n,e[1]=o*r+e[3]*n,e[2]=e[2]*r-i*n,e[3]=e[3]*r-o*n,this.w=this.s=this.i=null}return this}},{key:"scaleSelf",value:function(){var t=arguments.length>0&&void 0!==arguments[0]?arguments[0]:1,n=arguments.length>1&&void 0!==arguments[1]?arguments[1]:1;if(1!==t||1!==n){var r=this.m;r[0]*=t,r[1]*=t,r[2]*=n,r[3]*=n,this.w=this.s=this.i=null}return this}},{key:"skewSelf",value:function(t,n){if(n%=360,(t%=360)||n){var r=this.m,e=r[0],i=r[1],o=r[2],u=r[3];t&&(t=j(t*M),r[2]+=e*t,r[3]+=i*t),n&&(n=j(n*M),r[0]+=o*n,r[1]+=u*n),this.w=this.s=this.i=null}return this}},{key:"resetSelf",value:function(){var t=arguments.length>0&&void 0!==arguments[0]?arguments[0]:1,n=arguments.length>1&&void 0!==arguments[1]?arguments[1]:0,r=arguments.length>2&&void 0!==arguments[2]?arguments[2]:0,e=arguments.length>3&&void 0!==arguments[3]?arguments[3]:1,i=arguments.length>4&&void 0!==arguments[4]?arguments[4]:0,o=arguments.length>5&&void 0!==arguments[5]?arguments[5]:0,u=this.m;return u[0]=t,u[1]=n,u[2]=r,u[3]=e,u[4]=i,u[5]=o,this.w=this.s=this.i=null,this}},{key:"recomposeSelf",value:function(){var t=arguments.length>0&&void 0!==arguments[0]?arguments[0]:null,n=arguments.length>1&&void 0!==arguments[1]?arguments[1]:null,r=arguments.length>2&&void 0!==arguments[2]?arguments[2]:null,e=arguments.length>3&&void 0!==arguments[3]?arguments[3]:null,i=arguments.length>4&&void 0!==arguments[4]?arguments[4]:null;return this.isIdentity||this.resetSelf(),t&&(t.x||t.y)&&this.translateSelf(t.x,t.y),n&&this.rotateSelf(n),r&&(r.x&&this.skewSelf(r.x,0),r.y&&this.skewSelf(0,r.y)),!e||1===e.x&&1===e.y||this.scaleSelf(e.x,e.y),i&&(i.x||i.y)&&this.translateSelf(i.x,i.y),this}},{key:"decompose",value:function(){var t=arguments.length>0&&void 0!==arguments[0]?arguments[0]:0,n=arguments.length>1&&void 0!==arguments[1]?arguments[1]:0,r=this.m,e=r[0]*r[0]+r[1]*r[1],i=[[r[0],r[1]],[r[2],r[3]]],o=R(e);if(0===o)return{origin:{x:v(r[4]),y:v(r[5])},translate:{x:v(t),y:v(n)},scale:{x:0,y:0},skew:{x:0,y:0},rotate:0};i[0][0]/=o,i[0][1]/=o;var u=r[0]*r[3]-r[1]*r[2]<0;u&&(o=-o);var a=i[0][0]*i[1][0]+i[0][1]*i[1][1];i[1][0]-=i[0][0]*a,i[1][1]-=i[0][1]*a;var l=R(i[1][0]*i[1][0]+i[1][1]*i[1][1]);if(0===l)return{origin:{x:v(r[4]),y:v(r[5])},translate:{x:v(t),y:v(n)},scale:{x:v(o),y:0},skew:{x:0,y:0},rotate:0};i[1][0]/=l,i[1][1]/=l,a/=l;var f=0;return i[1][1]<0?(f=S(i[1][1])*E,i[0][1]<0&&(f=360-f)):f=O(i[0][1])*E,u&&(f=-f),a=P(a,R(i[0][0]*i[0][0]+i[0][1]*i[0][1]))*E,u&&(a=-a),{origin:{x:v(r[4]),y:v(r[5])},translate:{x:v(t),y:v(n)},scale:{x:v(o),y:v(l)},skew:{x:v(a),y:0},rotate:v(f)}}},{key:"toString",value:function(){var t=arguments.length>0&&void 0!==arguments[0]?arguments[0]:" ";return null===this.s&&(this.s="matrix("+this.m.map((function(t){return v(t)})).join(t)+")"),this.s}}]),t}();function N(t,n,r){return t>=.5?r:n}function B(t,n,r){return 0===t||n===r?n:t*(r-n)+n}function F(t,n,r){var e=B(t,n,r);return e<=0?0:e}function T(t,n,r){var e=B(t,n,r);return e<=0?0:e>=1?1:e}function q(t,n,r){return 0===t?n:1===t?r:{x:B(t,n.x,r.x),y:B(t,n.y,r.y)}}function L(t,n,r){var e=function(t,n,r){return Math.round(B(t,n,r))}(t,n,r);return e<=0?0:e>=255?255:e}function C(t,n,r){return 0===t?n:1===t?r:{r:L(t,n.r,r.r),g:L(t,n.g,r.g),b:L(t,n.b,r.b),a:B(t,null==n.a?1:n.a,null==r.a?1:r.a)}}function D(t,n){for(var r=[],e=0;e<t;e++)r.push(n);return r}function z(t,n){if(--n<=0)return t;var r=(t=Object.assign([],t)).length;do{for(var e=0;e<r;e++)t.push(t[e])}while(--n>0);return t}var V,G=function(){function t(n){e(this,t),this.list=n,this.length=n.length}return o(t,[{key:"setAttribute",value:function(t,n){for(var r=this.list,e=0;e<this.length;e++)r[e].setAttribute(t,n)}},{key:"removeAttribute",value:function(t){for(var n=this.list,r=0;r<this.length;r++)n[r].removeAttribute(t)}},{key:"style",value:function(t,n){for(var r=this.list,e=0;e<this.length;e++)r[e].style[t]=n}}]),t}(),Y=/-./g,U=function(t,n){return n.toUpperCase()};function $(t){return"function"==typeof t?t:N}function Q(t){return t?"function"==typeof t?t:Array.isArray(t)?function(t){var n=arguments.length>1&&void 0!==arguments[1]?arguments[1]:d;if(!Array.isArray(t))return n;switch(t.length){case 1:return x(t[0])||n;case 2:return x(t[0],t[1])||n;case 4:return m(t[0],t[1],t[2],t[3])||n}return n}(t,null):function(t,n){var r=arguments.length>2&&void 0!==arguments[2]?arguments[2]:d;switch(t){case"linear":return d;case"steps":return x(n.steps||1,n.jump||0)||r;case"bezier":case"cubic-bezier":return m(n.x1||0,n.y1||0,n.x2||0,n.y2||0)||r}return r}(t.type,t.value,null):null}function H(t,n,r){var e=arguments.length>3&&void 0!==arguments[3]&&arguments[3],i=n.length-1;if(t<=n[0].t)return e?[0,0,n[0].v]:n[0].v;if(t>=n[i].t)return e?[i,1,n[i].v]:n[i].v;var o,u=n[0],a=null;for(o=1;o<=i;o++){if(!(t>n[o].t)){a=n[o];break}u=n[o]}return null==a?e?[i,1,n[i].v]:n[i].v:u.t===a.t?e?[o,1,a.v]:a.v:(t=(t-u.t)/(a.t-u.t),u.e&&(t=u.e(t)),e?[o,t,r(t,u.v,a.v)]:r(t,u.v,a.v))}function J(t,n){var r=arguments.length>2&&void 0!==arguments[2]?arguments[2]:null;return t&&t.length?"function"!=typeof n?null:("function"!=typeof r&&(r=null),function(e){var i=H(e,t,n);return null!=i&&r&&(i=r(i)),i}):null}function Z(t,n){return t.t-n.t}function K(t,n,e,i,o){var u,a="@"===e[0],l="#"===e[0],f=V[e],s=N;switch(a?(u=e.substr(1),e=u.replace(Y,U)):l&&(e=e.substr(1)),r(f)){case"function":if(s=f(i,o,H,Q,e,a,n,t),l)return s;break;case"string":s=J(i,$(f));break;case"object":if((s=J(i,$(f.i),f.f))&&"function"==typeof f.u)return f.u(n,s,e,a,t)}return s?function(t,n,r){if(arguments.length>3&&void 0!==arguments[3]&&arguments[3])return t instanceof G?function(e){return t.style(n,r(e))}:function(e){return t.style[n]=r(e)};if(Array.isArray(n)){var e=n.length;return function(i){var o=r(i);if(null==o)for(var u=0;u<e;u++)t[u].removeAttribute(n);else for(var a=0;a<e;a++)t[a].setAttribute(n,o)}}return function(e){var i=r(e);null==i?t.removeAttribute(n):t.setAttribute(n,i)}}(n,e,s,a):null}function W(t,n,e,i){if(!i||"object"!==r(i))return null;var o=null,u=null;return Array.isArray(i)?u=function(t){if(!t||!t.length)return null;for(var n=0;n<t.length;n++)t[n].e&&(t[n].e=Q(t[n].e));return t.sort(Z)}(i):(u=i.keys,o=i.data||null),u?K(t,n,e,u,o):null}function X(t,n,r){if(!r)return null;var e=[];for(var i in r)if(r.hasOwnProperty(i)){var o=W(t,n,i,r[i]);o&&e.push(o)}return e.length?e:null}function tt(t,n){if(!n.duration||n.duration<0)return null;var r=function(t,n){if(!n)return null;var r=[];if(Array.isArray(n))for(var e=n.length,i=0;i<e;i++){var o=n[i];if(2===o.length){var u=null;if("string"==typeof o[0])u=t.getElementById(o[0]);else if(Array.isArray(o[0])){u=[];for(var a=0;a<o[0].length;a++)if("string"==typeof o[0][a]){var l=t.getElementById(o[0][a]);l&&u.push(l)}u=u.length?1===u.length?u[0]:new G(u):null}if(u){var f=X(t,u,o[1]);f&&(r=r.concat(f))}}}else for(var s in n)if(n.hasOwnProperty(s)){var c=t.getElementById(s);if(c){var h=X(t,c,n[s]);h&&(r=r.concat(h))}}return r.length?r:null}(t,n.elements);return r?function(t,n){var r=arguments.length>2&&void 0!==arguments[2]?arguments[2]:1/0,e=arguments.length>3&&void 0!==arguments[3]?arguments[3]:1,i=arguments.length>4&&void 0!==arguments[4]&&arguments[4],o=arguments.length>5&&void 0!==arguments[5]?arguments[5]:1,u=t.length,a=e>0?n:0;i&&r%2==0&&(a=n-a);var l=null;return function(f,s){var c=f%n,h=1+(f-c)/n;s*=e,i&&h%2==0&&(s=-s);var v=!1;if(h>r)c=a,v=!0,-1===o&&(c=e>0?0:n);else if(s<0&&(c=n-c),c===l)return!1;l=c;for(var y=0;y<u;y++)t[y](c);return v}}(r,n.duration,n.iterations||1/0,n.direction||1,!!n.alternate,n.fill||1):null}function nt(t){return+("0x"+(t.replace(/[^0-9a-fA-F]+/g,"")||27))}function rt(t,n,r){return!t||!r||n>t.length?t:t.substring(0,n)+rt(t.substring(n+1),r,r)}function et(t){var n=arguments.length>1&&void 0!==arguments[1]?arguments[1]:27;return!t||t%n?t%n:et(t/n,n)}function it(t,n,r){if(t&&t.length){var e=nt(r),i=nt(n),o=et(e)+5,u=rt(t,et(e,5),o);return u=u.replace(/\x7c$/g,"==").replace(/\x2f$/g,"="),u=function(t,n,r){var e=+("0x"+t.substring(0,4));t=t.substring(4);for(var i=n%e+r%27,o=[],u=0;u<t.length;u+=2)if("|"!==t[u]){var a=+("0x"+t[u]+t[u+1])-i;o.push(a)}else{var l=+("0x"+t.substring(u+1,u+1+4))-i;u+=3,o.push(l)}return String.fromCharCode.apply(String,o)}(u=(u=atob(u)).replace(/[\x41-\x5A]/g,""),i,e),u=JSON.parse(u)}}Number.isInteger||(Number.isInteger=function(t){return"number"==typeof t&&isFinite(t)&&Math.floor(t)===t}),Number.EPSILON||(Number.EPSILON=2220446049250313e-31);var ot=function(){function t(n,r){var i=arguments.length>2&&void 0!==arguments[2]?arguments[2]:{};e(this,t),this._id=0,this._running=!1,this._rollingBack=!1,this._animations=n,this.duration=r.duration,this.alternate=r.alternate,this.fill=r.fill,this.iterations=r.iterations,this.direction=i.direction||1,this.speed=i.speed||1,this.fps=i.fps||100,this.offset=i.offset||0,this.rollbackStartOffset=0}return o(t,[{key:"_rollback",value:function(){var t=this,n=1/0,r=null;this.rollbackStartOffset=this.offset,this._rollingBack||(this._rollingBack=!0,this._running=!0);this._id=window.requestAnimationFrame((function e(i){if(t._rollingBack){null==r&&(r=i);var o=i-r,u=t.rollbackStartOffset-o,a=Math.round(u*t.speed);if(a>t.duration&&n!=1/0){var l=!!t.alternate&&a/t.duration%2>1,f=a%t.duration;a=(f+=l?t.duration:0)||t.duration}var s=t.fps?1e3/t.fps:0,c=Math.max(0,a);if(c<n-s){t.offset=c,n=c;for(var h=t._animations,v=h.length,y=0;y<v;y++)h[y](c,t.direction)}var g=!1;if(t.iterations>0&&-1===t.fill){var d=t.iterations*t.duration,p=d==a;a=p?0:a,t.offset=p?0:t.offset,g=a>d}a>0&&t.offset>=a&&!g?t._id=window.requestAnimationFrame(e):t.stop()}}))}},{key:"_start",value:function(){var t=this,n=arguments.length>0&&void 0!==arguments[0]?arguments[0]:0,r=-1/0,e=null,i={},o=function o(u){t._running=!0,null==e&&(e=u);var a=Math.round((u-e+n)*t.speed),l=t.fps?1e3/t.fps:0;if(a>r+l&&!t._rollingBack){t.offset=a,r=a;for(var f=t._animations,s=f.length,c=0,h=0;h<s;h++)i[h]?c++:(i[h]=f[h](a,t.direction),i[h]&&c++);if(c===s)return void t._stop()}t._id=window.requestAnimationFrame(o)};this._id=window.requestAnimationFrame(o)}},{key:"_stop",value:function(){this._id&&window.cancelAnimationFrame(this._id),this._running=!1,this._rollingBack=!1}},{key:"play",value:function(){!this._rollingBack&&this._running||(this._rollingBack=!1,this.rollbackStartOffset>this.duration&&(this.offset=this.rollbackStartOffset-(this.rollbackStartOffset-this.offset)%this.duration,this.rollbackStartOffset=0),this._start(this.offset))}},{key:"stop",value:function(){this._stop(),this.offset=0,this.rollbackStartOffset=0;var t=this.direction,n=this._animations;window.requestAnimationFrame((function(){for(var r=0;r<n.length;r++)n[r](0,t)}))}},{key:"reachedToEnd",value:function(){return this.iterations>0&&this.offset>=this.iterations*this.duration}},{key:"restart",value:function(){this._stop(),this.offset=0,this._start()}},{key:"pause",value:function(){this._stop()}},{key:"reverse",value:function(){this.direction=-this.direction}}],[{key:"build",value:function(r,e){return delete r.animationSettings,r.options=it(r.options,r.root,"5c7f360c"),r.animations.map((function(t){var e=it(t.s,r.root,"5c7f360c");for(var i in delete t.s,r.animationSettings||(r.animationSettings=n({},e)),e)e.hasOwnProperty(i)&&(t[i]=e[i])})),(r=function(t,n){if(V=n,!t||!t.root||!Array.isArray(t.animations))return null;for(var r=document.getElementsByTagName("svg"),e=!1,i=0;i<r.length;i++)if(r[i].id===t.root&&!r[i].svgatorAnimation){(e=r[i]).svgatorAnimation=!0;break}if(!e)return null;var o=t.animations.map((function(t){return tt(e,t)})).filter((function(t){return!!t}));return o.length?{element:e,animations:o,animationSettings:t.animationSettings,options:t.options||void 0}:null}(r,e))?{el:r.element,options:r.options||{},player:new t(r.animations,r.animationSettings,r.options)}:null}},{key:"push",value:function(t){return this.build(t)}},{key:"init",value:function(){var t=this,n=window.__SVGATOR_PLAYER__&&window.__SVGATOR_PLAYER__["5c7f360c"];Array.isArray(n)&&n.splice(0).forEach((function(n){return t.build(n)}))}}]),t}();function ut(t){return v(t)+""}function at(t){var n=arguments.length>1&&void 0!==arguments[1]?arguments[1]:" ";return t&&t.length?t.map(ut).join(n):""}function lt(t){return t?null==t.a||t.a>=1?"rgb("+t.r+","+t.g+","+t.b+")":"rgba("+t.r+","+t.g+","+t.b+","+t.a+")":"transparent"}function ft(t){return t?"url(#"+t+")":"none"}!function(){for(var t=0,n=["ms","moz","webkit","o"],r=0;r<n.length&&!window.requestAnimationFrame;++r)window.requestAnimationFrame=window[n[r]+"RequestAnimationFrame"],window.cancelAnimationFrame=window[n[r]+"CancelAnimationFrame"]||window[n[r]+"CancelRequestAnimationFrame"];window.requestAnimationFrame||(window.requestAnimationFrame=function(n){var r=Date.now(),e=Math.max(0,16-(r-t)),i=window.setTimeout((function(){n(r+e)}),e);return t=r+e,i},window.cancelAnimationFrame=window.clearTimeout)}();var st={f:null,i:function(t,n,r){return 0===t?n:1===t?r:{x:F(t,n.x,r.x),y:F(t,n.y,r.y)}},u:function(t,n){return function(r){var e=n(r);t.setAttribute("rx",ut(e.x)),t.setAttribute("ry",ut(e.y))}}},ct={f:null,i:function(t,n,r){return 0===t?n:1===t?r:{width:F(t,n.width,r.width),height:F(t,n.height,r.height)}},u:function(t,n){return function(r){var e=n(r);t.setAttribute("width",ut(e.width)),t.setAttribute("height",ut(e.height))}}};Object.freeze({M:2,L:2,Z:0,H:1,V:1,C:6,Q:4,T:2,S:4,A:7});var ht={},vt=null;function yt(t){var n=function(){if(vt)return vt;if("object"!==("undefined"==typeof document?"undefined":r(document))||!document.createElementNS)return{};var t=document.createElementNS("http://www.w3.org/2000/svg","svg");return t&&t.style?(t.style.position="absolute",t.style.opacity="0.01",t.style.zIndex="-9999",t.style.left="-9999px",t.style.width="1px",t.style.height="1px",vt={svg:t}):{}}().svg;if(!n)return function(t){return null};var e=document.createElementNS(n.namespaceURI,"path");e.setAttributeNS(null,"d",t),e.setAttributeNS(null,"fill","none"),e.setAttributeNS(null,"stroke","none"),n.appendChild(e);var i=e.getTotalLength();return function(t){var n=e.getPointAtLength(i*t);return{x:n.x,y:n.y}}}function gt(t){return ht[t]?ht[t]:ht[t]=yt(t)}function dt(t,n,r,e){if(!t||!e)return!1;var i=["M",t.x,t.y];if(n&&r&&(i.push("C"),i.push(n.x),i.push(n.y),i.push(r.x),i.push(r.y)),n?!r:r){var o=n||r;i.push("Q"),i.push(o.x),i.push(o.y)}return n||r||i.push("L"),i.push(e.x),i.push(e.y),i.join(" ")}function pt(t,n,r,e){var i=arguments.length>4&&void 0!==arguments[4]?arguments[4]:1,o=dt(t,n,r,e),u=gt(o);try{return u(i)}catch(t){return null}}function mt(t,n,r,e){var i=1-e;return i*i*t+2*i*e*n+e*e*r}function bt(t,n,r,e){return 2*(1-e)*(n-t)+2*e*(r-n)}function wt(t,n,r,e){var i=arguments.length>4&&void 0!==arguments[4]&&arguments[4],o=pt(t,n,null,r,e);return o||(o={x:mt(t.x,n.x,r.x,e),y:mt(t.y,n.y,r.y,e)}),i&&(o.a=xt(t,n,r,e)),o}function xt(t,n,r,e){return Math.atan2(bt(t.y,n.y,r.y,e),bt(t.x,n.x,r.x,e))}function At(t,n,r,e,i){var o=i*i;return i*o*(e-t+3*(n-r))+3*o*(t+r-2*n)+3*i*(n-t)+t}function kt(t,n,r,e,i){var o=1-i;return 3*(o*o*(n-t)+2*o*i*(r-n)+i*i*(e-r))}function _t(t,n,r,e,i){var o=arguments.length>5&&void 0!==arguments[5]&&arguments[5],u=pt(t,n,r,e,i);return u||(u={x:At(t.x,n.x,r.x,e.x,i),y:At(t.y,n.y,r.y,e.y,i)}),o&&(u.a=St(t,n,r,e,i)),u}function St(t,n,r,e,i){return Math.atan2(kt(t.y,n.y,r.y,e.y,i),kt(t.x,n.x,r.x,e.x,i))}function Ot(t,n,r){return t+(n-t)*r}function jt(t,n,r){var e=arguments.length>3&&void 0!==arguments[3]&&arguments[3],i={x:Ot(t.x,n.x,r),y:Ot(t.y,n.y,r)};return e&&(i.a=Pt(t,n)),i}function Pt(t,n){return Math.atan2(n.y-t.y,n.x-t.x)}function Mt(t,n,r){var e=arguments.length>3&&void 0!==arguments[3]&&arguments[3];if(Rt(n)){if(It(r))return wt(n,r.start,r,t,e)}else if(Rt(r)){if(n.end)return wt(n,n.end,r,t,e)}else{if(n.end)return r.start?_t(n,n.end,r.start,r,t,e):wt(n,n.end,r,t,e);if(r.start)return wt(n,r.start,r,t,e)}return jt(n,r,t,e)}function Et(t,n,r){var e=Mt(t,n,r,!0);return e.a=function(t){return arguments.length>1&&void 0!==arguments[1]&&arguments[1]?t+Math.PI:t}(e.a)/g,e}function Rt(t){return!t.type||"corner"===t.type}function It(t){return null!=t.start&&!Rt(t)}var Nt=new I;var Bt={f:ut,i:B},Ft={f:ut,i:T};function Tt(t,n,r){return t.map((function(t){return function(t,n,r){var e=t.v;if(!e||"g"!==e.t||e.s||!e.v||!e.r)return t;var i=r.getElementById(e.r),o=i&&i.querySelectorAll("stop")||[];return e.s=e.v.map((function(t,n){var r=o[n]&&o[n].getAttribute("offset");return{c:t,o:r=v(parseInt(r)/100)}})),delete e.v,t}(t,0,r)}))}var qt={gt:"gradientTransform",c:{x:"cx",y:"cy"},rd:"r",f:{x:"x1",y:"y1"},to:{x:"x2",y:"y2"}};function Lt(t,n,e,i,o,u,a,l){return Tt(t,0,l),n=function(t,n,r){for(var e,i,o,u=t.length-1,a={},l=0;l<=u;l++)(e=t[l]).e&&(e.e=n(e.e)),e.v&&"g"===(i=e.v).t&&i.r&&(o=r.getElementById(i.r))&&(a[i.r]={e:o,s:o.querySelectorAll("stop")});return a}(t,i,l),function(i){var o=e(i,t,Ct);if(!o)return"none";if("c"===o.t)return lt(o.v);if("g"===o.t){if(!n[o.r])return ft(o.r);var u=n[o.r];return function(t,n){for(var r=t.s,e=r.length;e<n.length;e++){var i=r[r.length-1].cloneNode();i.id=Vt(i.id),t.e.appendChild(i),r=t.s=t.e.querySelectorAll("stop")}for(var o=0,u=r.length,a=n.length-1;o<u;o++)r[o].setAttribute("stop-color",lt(n[Math.min(o,a)].c)),r[o].setAttribute("offset",n[Math.min(o,a)].o)}(u,o.s),Object.keys(qt).forEach((function(t){if(void 0!==o[t])if("object"!==r(qt[t])){var n,e="gt"===t?(n=o[t],Array.isArray(n)?"matrix("+n.join(" ")+")":""):o[t],i=qt[t];u.e.setAttribute(i,e)}else Object.keys(qt[t]).forEach((function(n){if(void 0!==o[t][n]){var r=o[t][n],e=qt[t][n];u.e.setAttribute(e,r)}}))})),ft(o.r)}return"none"}}function Ct(t,r,e){if(0===t)return r;if(1===t)return e;if(r&&e){var i=r.t;if(i===e.t)switch(r.t){case"c":return{t:i,v:C(t,r.v,e.v)};case"g":if(r.r===e.r){var o={t:i,s:Dt(t,r.s,e.s),r:r.r};return r.gt&&e.gt&&(o.gt=function(t,n,r){var e=n.length;if(e!==r.length)return N(t,n,r);for(var i=new Array(e),o=0;o<e;o++)i[o]=B(t,n[o],r[o]);return i}(t,r.gt,e.gt)),r.c?(o.c=q(t,r.c,e.c),o.rd=F(t,r.rd,e.rd)):r.f&&(o.f=q(t,r.f,e.f),o.to=q(t,r.to,e.to)),o}}if("c"===r.t&&"g"===e.t||"c"===e.t&&"g"===r.t){var u="c"===r.t?r:e,a="g"===r.t?n({},r):n({},e),l=a.s.map((function(t){return{c:u.v,o:t.o}}));return a.s="c"===r.t?Dt(t,l,a.s):Dt(t,a.s,l),a}}return N(t,r,e)}function Dt(t,n,r){if(n.length===r.length)return n.map((function(n,e){return zt(t,n,r[e])}));for(var e=Math.max(n.length,r.length),i=[],o=0;o<e;o++){var u=zt(t,n[Math.min(o,n.length-1)],r[Math.min(o,r.length-1)]);i.push(u)}return i}function zt(t,n,r){return{o:T(t,n.o,r.o||0),c:C(t,n.c,r.c||{})}}function Vt(t){return t.replace(/-fill-([0-9]+)$/,(function(t,n){return"-fill-"+(+n+1)}))}var Gt={fill:Lt,"fill-opacity":Ft,stroke:Lt,"stroke-opacity":Ft,"stroke-width":Bt,"stroke-dashoffset":{f:ut,i:B},"stroke-dasharray":{f:function(t){var n=arguments.length>1&&void 0!==arguments[1]?arguments[1]:" ";return t&&t.length>0&&(t=t.map((function(t){return v(t,4)}))),at(t,n)},i:function(t,n,r){var e,i,o,u=n.length,a=r.length;if(u!==a)if(0===u)n=D(u=a,0);else if(0===a)a=u,r=D(u,0);else{var l=(o=(e=u)*(i=a)/function(t,n){for(var r;n;)r=n,n=t%n,t=r;return t||1}(e,i))<0?-o:o;n=z(n,Math.floor(l/u)),r=z(r,Math.floor(l/a)),u=a=l}for(var f=[],s=0;s<u;s++)f.push(v(F(t,n[s],r[s])));return f}},opacity:Ft,transform:function(t,n,e,i){if(!(t=function(t,n){if(!t||"object"!==r(t))return null;var e=!1;for(var i in t)t.hasOwnProperty(i)&&(t[i]&&t[i].length?(t[i].forEach((function(t){t.e&&(t.e=n(t.e))})),e=!0):delete t[i]);return e?t:null}(t,i)))return null;var o=function(r,i,o){var u=arguments.length>3&&void 0!==arguments[3]?arguments[3]:null;return t[r]?e(i,t[r],o):n&&n[r]?n[r]:u};return n&&n.a&&t.o?function(n){var r=e(n,t.o,Et);return Nt.recomposeSelf(r,o("r",n,B,0)+r.a,o("k",n,q),o("s",n,q),o("t",n,q)).toString()}:function(t){return Nt.recomposeSelf(o("o",t,Mt,null),o("r",t,B,0),o("k",t,q),o("s",t,q),o("t",t,q)).toString()}},r:Bt,"#size":ct,"#radius":st,_:function(t,n){if(Array.isArray(t))for(var r=0;r<t.length;r++)this[t[r]]=n;else this[t]=n}},Yt=function(t){!function(t,n){if("function"!=typeof n&&null!==n)throw new TypeError("Super expression must either be null or a function");t.prototype=Object.create(n&&n.prototype,{constructor:{value:t,writable:!0,configurable:!0}}),n&&l(t,n)}(r,t);var n=s(r);function r(){return e(this,r),n.apply(this,arguments)}return o(r,null,[{key:"build",value:function(t){var n=c(a(r),"build",this).call(this,t,Gt);if(!n)return null;n.el,n.options,function(t,n,r){t.play()}(n.player)}}]),r}(ot);return Yt.init(),Yt}));
(function(s,i,o,w){w[o]=w[o]||{};w[o][s]=w[o][s]||[];w[o][s].push(i);})('5c7f360c',{"root":"ednZEblxeGA1","animations":[{"elements":{"ednZEblxeGA12":{"transform":{"data":{"o":{"x":380.899994,"y":48.5,"type":"corner"},"t":{"x":9.9961,"y":9.996096}},"keys":{"s":[{"t":0,"v":{"x":1,"y":1}},{"t":3000,"v":{"x":1,"y":1}},{"t":6000,"v":{"x":1,"y":1}}]}}},"ednZEblxeGA13":{"transform":{"data":{"t":{"x":-99.869816,"y":-389.100006}},"keys":{"o":[{"t":400,"v":{"x":109.084431,"y":397.600006,"type":"corner"}},{"t":3000,"v":{"x":85.084431,"y":463.600006,"type":"corner"}},{"t":6000,"v":{"x":109.084431,"y":397.600006,"type":"corner"}}]}}},"ednZEblxeGA14":{"transform":{"data":{"t":{"x":-164.099998,"y":-463.75}},"keys":{"o":[{"t":700,"v":{"x":164.099998,"y":463.75,"type":"corner"}},{"t":3000,"v":{"x":149.185829,"y":504.45,"type":"corner"}},{"t":6000,"v":{"x":164.099998,"y":463.75,"type":"corner"}}]}}},"ednZEblxeGA15":{"transform":{"data":{"t":{"x":-625.650024,"y":-547.449982}},"keys":{"o":[{"t":0,"v":{"x":625.650024,"y":547.449982,"type":"corner"}},{"t":3000,"v":{"x":625.650024,"y":672.649982,"type":"corner"}},{"t":6000,"v":{"x":625.650024,"y":547.449982,"type":"corner"}}]}}},"ednZEblxeGA35":{"transform":{"data":{"t":{"x":-49.869816,"y":-509.100006}},"keys":{"o":[{"t":0,"v":{"x":49.869816,"y":509.100006,"type":"corner"}},{"t":3000,"v":{"x":28.084431,"y":563.600006,"type":"corner"}},{"t":6000,"v":{"x":49.869816,"y":509.100006,"type":"corner"}}]}}}},"s":"MLDA1M0tkMDc3YjljYWWM3YjZjOWJlYzRjMzcS3OGY4Yk84NU44NTg1QODE3N2I5YmVjN2JhYIjhjOWJlYzRjMzc3OGUY4NjgxNzdiZWM5YmFEjN2I2YzliZWM0YzNjDODc3OGY4NTgxNzdiYEmJlYzFjMTc3OGY4NjYgxNzdiNmMxYzliYUNTjN2MzYjZBT2M5YmE3FNzhmSmJiYjZjMWM4YLmE4MTc3YzhjNWJhYmQFiOTc3OGZEODZkMg|J"}],"options":"MMDAxMDg4SjJmQzgwODRE2ZTdmODEyZjQ3MmYM3OTdjNmVYNzEyZjhhY"},'__SVGATOR_PLAYER__',window)]]></script></svg>